# xmcd CD database file
#
# Track frame offsets:
#	150
#	11299
#	21737
#	32011
#	55706
#	61885
#	70374
#	86883
#	109230
#
# Disc length: 1658 seconds
#
# Revision: 0
# Processed by: cddbd v1.5.2PL0 Copyright (c) Steve Scherf et al.
# Submitted via: CDex 1.51
#
DISCID=76067809
DTITLE=Чёрный квадрат - CAFE DE L'ART
DYEAR=1900
DGENRE=Jazz
TTITLE0=Прогулка
TTITLE1=Шутка Баха
TTITLE2=For Lisa
TTITLE3=Одиночество
TTITLE4=Второй полёт шмеля
TTITLE5=Испанские каникулы
TTITLE6=C.Bolling - Garnerama
TTITLE7=C.Bolling - Baroque and Blue
TTITLE8=C.Bolling - Irlandaise
EXTD=
EXTT0=
EXTT1=
EXTT2=
EXTT3=
EXTT4=
EXTT5=
EXTT6=
EXTT7=
EXTT8=
PLAYORDER=
